<svg width="347" height="87" viewBox="0 0 347 87" fill="none" xmlns="http://www.w3.org/2000/svg">
<path d="M63.12 15.47L49.62 59H41.49L32.58 30.53C32.44 30.13 32.3 29.69 32.16 29.21C32.02 28.73 31.89 28.22 31.77 27.68C31.65 28.22 31.52 28.73 31.38 29.21C31.24 29.69 31.1 30.13 30.96 30.53L21.96 59H13.8L0.33 15.47H7.89C8.67 15.47 9.32 15.65 9.84 16.01C10.38 16.37 10.73 16.85 10.89 17.45L17.64 41.99C17.8 42.67 17.96 43.41 18.12 44.21C18.3 44.99 18.47 45.82 18.63 46.7C18.81 45.8 19 44.96 19.2 44.18C19.4 43.4 19.62 42.67 19.86 41.99L27.72 17.45C27.88 16.95 28.22 16.5 28.74 16.1C29.28 15.68 29.93 15.47 30.69 15.47H33.33C34.11 15.47 34.74 15.66 35.22 16.04C35.72 16.4 36.09 16.87 36.33 17.45L44.16 41.99C44.4 42.63 44.62 43.33 44.82 44.09C45.02 44.83 45.21 45.62 45.39 46.46C45.55 45.62 45.7 44.83 45.84 44.09C46 43.33 46.16 42.63 46.32 41.99L53.07 17.45C53.21 16.93 53.55 16.47 54.09 16.07C54.63 15.67 55.28 15.47 56.04 15.47H63.12ZM77.0184 27.59C79.3384 27.59 81.4484 27.96 83.3484 28.7C85.2484 29.44 86.8784 30.5 88.2384 31.88C89.5984 33.24 90.6484 34.9 91.3884 36.86C92.1284 38.82 92.4984 41.03 92.4984 43.49C92.4984 45.95 92.1284 48.17 91.3884 50.15C90.6484 52.11 89.5984 53.78 88.2384 55.16C86.8784 56.54 85.2484 57.6 83.3484 58.34C81.4484 59.08 79.3384 59.45 77.0184 59.45C74.6784 59.45 72.5484 59.08 70.6284 58.34C68.7284 57.6 67.0984 56.54 65.7384 55.16C64.3784 53.78 63.3184 52.11 62.5584 50.15C61.8184 48.17 61.4484 45.95 61.4484 43.49C61.4484 41.03 61.8184 38.82 62.5584 36.86C63.3184 34.9 64.3784 33.24 65.7384 31.88C67.0984 30.5 68.7284 29.44 70.6284 28.7C72.5484 27.96 74.6784 27.59 77.0184 27.59ZM77.0184 53.24C79.3784 53.24 81.1284 52.43 82.2684 50.81C83.4084 49.17 83.9784 46.74 83.9784 43.52C83.9784 40.32 83.4084 37.91 82.2684 36.29C81.1284 34.65 79.3784 33.83 77.0184 33.83C74.5984 33.83 72.8184 34.65 71.6784 36.29C70.5384 37.91 69.9684 40.32 69.9684 43.52C69.9684 46.74 70.5384 49.17 71.6784 50.81C72.8184 52.43 74.5984 53.24 77.0184 53.24ZM105.467 33.17C106.447 31.41 107.577 30.02 108.857 29C110.137 27.98 111.637 27.47 113.357 27.47C114.757 27.47 115.897 27.8 116.777 28.46L116.237 34.58C116.137 34.98 115.977 35.26 115.757 35.42C115.557 35.56 115.277 35.63 114.917 35.63C114.597 35.63 114.137 35.59 113.537 35.51C112.937 35.41 112.377 35.36 111.857 35.36C111.097 35.36 110.417 35.47 109.817 35.69C109.237 35.91 108.717 36.22 108.257 36.62C107.797 37.02 107.377 37.51 106.997 38.09C106.637 38.67 106.297 39.33 105.977 40.07V59H97.6973V28.07H102.587C103.427 28.07 104.007 28.22 104.327 28.52C104.647 28.82 104.877 29.34 105.017 30.08L105.467 33.17ZM138.78 36.11C138 35.21 137.15 34.58 136.23 34.22C135.33 33.86 134.37 33.68 133.35 33.68C132.35 33.68 131.44 33.87 130.62 34.25C129.8 34.63 129.09 35.23 128.49 36.05C127.91 36.85 127.46 37.88 127.14 39.14C126.82 40.4 126.66 41.9 126.66 43.64C126.66 45.36 126.79 46.82 127.05 48.02C127.31 49.22 127.68 50.19 128.16 50.93C128.66 51.67 129.26 52.21 129.96 52.55C130.66 52.87 131.44 53.03 132.3 53.03C133.76 53.03 134.98 52.74 135.96 52.16C136.96 51.58 137.9 50.76 138.78 49.7V36.11ZM147.06 14.27V59H141.96C140.9 59 140.22 58.52 139.92 57.56L139.23 54.86C138.61 55.54 137.95 56.16 137.25 56.72C136.57 57.28 135.83 57.77 135.03 58.19C134.23 58.59 133.37 58.9 132.45 59.12C131.53 59.34 130.53 59.45 129.45 59.45C127.79 59.45 126.27 59.1 124.89 58.4C123.51 57.7 122.31 56.68 121.29 55.34C120.29 53.98 119.51 52.32 118.95 50.36C118.39 48.4 118.11 46.16 118.11 43.64C118.11 41.34 118.42 39.2 119.04 37.22C119.68 35.24 120.58 33.53 121.74 32.09C122.9 30.65 124.3 29.52 125.94 28.7C127.58 27.88 129.4 27.47 131.4 27.47C133.08 27.47 134.49 27.72 135.63 28.22C136.79 28.72 137.84 29.4 138.78 30.26V14.27H147.06ZM190.506 36.83H205.446V54.8C203.226 56.42 200.856 57.61 198.336 58.37C195.836 59.11 193.186 59.48 190.386 59.48C186.806 59.48 183.566 58.93 180.666 57.83C177.766 56.71 175.286 55.16 173.226 53.18C171.166 51.2 169.576 48.85 168.456 46.13C167.336 43.41 166.776 40.44 166.776 37.22C166.776 33.96 167.306 30.97 168.366 28.25C169.446 25.53 170.976 23.19 172.956 21.23C174.936 19.27 177.326 17.74 180.126 16.64C182.946 15.54 186.096 14.99 189.576 14.99C191.376 14.99 193.056 15.14 194.616 15.44C196.176 15.72 197.616 16.12 198.936 16.64C200.256 17.14 201.466 17.74 202.566 18.44C203.666 19.14 204.666 19.91 205.566 20.75L202.956 24.77C202.556 25.41 202.036 25.8 201.396 25.94C200.756 26.08 200.056 25.92 199.296 25.46C198.576 25.02 197.866 24.63 197.166 24.29C196.486 23.93 195.756 23.62 194.976 23.36C194.196 23.1 193.346 22.9 192.426 22.76C191.506 22.62 190.446 22.55 189.246 22.55C187.226 22.55 185.396 22.9 183.756 23.6C182.116 24.3 180.716 25.29 179.556 26.57C178.416 27.85 177.536 29.39 176.916 31.19C176.296 32.99 175.986 35 175.986 37.22C175.986 39.62 176.326 41.77 177.006 43.67C177.686 45.55 178.646 47.14 179.886 48.44C181.126 49.74 182.606 50.73 184.326 51.41C186.066 52.09 187.996 52.43 190.116 52.43C191.556 52.43 192.836 52.29 193.956 52.01C195.096 51.71 196.206 51.31 197.286 50.81V43.49H192.366C191.786 43.49 191.326 43.34 190.986 43.04C190.666 42.72 190.506 42.32 190.506 41.84V36.83ZM227.774 46.07C225.754 46.17 224.074 46.35 222.734 46.61C221.394 46.85 220.324 47.17 219.524 47.57C218.744 47.97 218.184 48.43 217.844 48.95C217.524 49.45 217.364 50 217.364 50.6C217.364 51.8 217.694 52.65 218.354 53.15C219.034 53.65 219.974 53.9 221.174 53.9C222.554 53.9 223.744 53.66 224.744 53.18C225.764 52.68 226.774 51.91 227.774 50.87V46.07ZM210.914 32.36C212.734 30.72 214.744 29.5 216.944 28.7C219.144 27.88 221.524 27.47 224.084 27.47C225.924 27.47 227.564 27.77 229.004 28.37C230.464 28.97 231.694 29.81 232.694 30.89C233.714 31.95 234.494 33.22 235.034 34.7C235.574 36.18 235.844 37.8 235.844 39.56V59H232.064C231.284 59 230.684 58.89 230.264 58.67C229.864 58.45 229.534 57.99 229.274 57.29L228.614 55.31C227.834 55.99 227.074 56.59 226.334 57.11C225.614 57.63 224.864 58.07 224.084 58.43C223.304 58.77 222.464 59.03 221.564 59.21C220.684 59.39 219.694 59.48 218.594 59.48C217.234 59.48 215.994 59.3 214.874 58.94C213.754 58.58 212.784 58.05 211.964 57.35C211.164 56.63 210.544 55.74 210.104 54.68C209.664 53.62 209.444 52.4 209.444 51.02C209.444 49.88 209.734 48.74 210.314 47.6C210.894 46.46 211.884 45.43 213.284 44.51C214.704 43.57 216.584 42.8 218.924 42.2C221.284 41.58 224.234 41.23 227.774 41.15V39.56C227.774 37.62 227.364 36.2 226.544 35.3C225.724 34.38 224.544 33.92 223.004 33.92C221.864 33.92 220.914 34.06 220.154 34.34C219.394 34.6 218.724 34.89 218.144 35.21C217.584 35.51 217.054 35.8 216.554 36.08C216.054 36.34 215.474 36.47 214.814 36.47C214.234 36.47 213.744 36.33 213.344 36.05C212.964 35.75 212.644 35.4 212.384 35L210.914 32.36ZM242.307 59V28.07H247.407C248.447 28.07 249.137 28.55 249.477 29.51L249.957 31.52C250.497 30.96 251.047 30.44 251.607 29.96C252.187 29.48 252.807 29.07 253.467 28.73C254.127 28.37 254.837 28.09 255.597 27.89C256.377 27.69 257.217 27.59 258.117 27.59C260.017 27.59 261.587 28.1 262.827 29.12C264.067 30.12 265.007 31.46 265.647 33.14C266.147 32.16 266.757 31.32 267.477 30.62C268.217 29.9 269.017 29.32 269.877 28.88C270.757 28.44 271.677 28.12 272.637 27.92C273.617 27.7 274.597 27.59 275.577 27.59C277.317 27.59 278.857 27.85 280.197 28.37C281.537 28.89 282.657 29.66 283.557 30.68C284.477 31.68 285.177 32.91 285.657 34.37C286.137 35.83 286.377 37.49 286.377 39.35V59H278.097V39.35C278.097 35.73 276.547 33.92 273.447 33.92C272.747 33.92 272.097 34.04 271.497 34.28C270.917 34.5 270.397 34.84 269.937 35.3C269.497 35.76 269.147 36.33 268.887 37.01C268.647 37.69 268.527 38.47 268.527 39.35V59H260.247V39.35C260.247 37.39 259.857 36 259.077 35.18C258.317 34.34 257.187 33.92 255.687 33.92C254.727 33.92 253.817 34.15 252.957 34.61C252.117 35.05 251.327 35.67 250.587 36.47V59H242.307ZM312.552 39.89C312.552 39.03 312.432 38.21 312.192 37.43C311.972 36.65 311.612 35.96 311.112 35.36C310.612 34.76 309.982 34.29 309.222 33.95C308.462 33.59 307.552 33.41 306.492 33.41C304.512 33.41 302.962 33.97 301.842 35.09C300.722 36.21 299.992 37.81 299.652 39.89H312.552ZM299.532 44.81C299.792 47.71 300.612 49.83 301.992 51.17C303.392 52.51 305.212 53.18 307.452 53.18C308.592 53.18 309.572 53.05 310.392 52.79C311.232 52.51 311.962 52.21 312.582 51.89C313.222 51.55 313.792 51.25 314.292 50.99C314.812 50.71 315.322 50.57 315.822 50.57C316.462 50.57 316.962 50.81 317.322 51.29L319.722 54.29C318.842 55.31 317.872 56.16 316.812 56.84C315.752 57.5 314.652 58.03 313.512 58.43C312.372 58.81 311.222 59.07 310.062 59.21C308.902 59.37 307.782 59.45 306.702 59.45C304.542 59.45 302.522 59.1 300.642 58.4C298.782 57.68 297.152 56.63 295.752 55.25C294.372 53.85 293.282 52.12 292.482 50.06C291.682 48 291.282 45.61 291.282 42.89C291.282 40.79 291.622 38.81 292.302 36.95C293.002 35.09 294.002 33.47 295.302 32.09C296.602 30.71 298.182 29.62 300.042 28.82C301.902 28 304.002 27.59 306.342 27.59C308.322 27.59 310.142 27.91 311.802 28.55C313.482 29.17 314.922 30.08 316.122 31.28C317.342 32.48 318.282 33.96 318.942 35.72C319.622 37.46 319.962 39.45 319.962 41.69C319.962 42.31 319.932 42.82 319.872 43.22C319.812 43.62 319.712 43.94 319.572 44.18C319.432 44.42 319.242 44.59 319.002 44.69C318.762 44.77 318.452 44.81 318.072 44.81H299.532ZM344.33 34.43C344.11 34.77 343.88 35.02 343.64 35.18C343.42 35.32 343.11 35.39 342.71 35.39C342.31 35.39 341.9 35.29 341.48 35.09C341.06 34.89 340.59 34.68 340.07 34.46C339.55 34.22 338.95 34 338.27 33.8C337.61 33.6 336.84 33.5 335.96 33.5C334.62 33.5 333.58 33.78 332.84 34.34C332.1 34.88 331.73 35.6 331.73 36.5C331.73 37.12 331.94 37.64 332.36 38.06C332.78 38.48 333.33 38.85 334.01 39.17C334.71 39.47 335.5 39.76 336.38 40.04C337.26 40.3 338.16 40.59 339.08 40.91C340.02 41.23 340.93 41.6 341.81 42.02C342.69 42.44 343.47 42.97 344.15 43.61C344.85 44.23 345.41 44.99 345.83 45.89C346.25 46.77 346.46 47.84 346.46 49.1C346.46 50.6 346.18 51.99 345.62 53.27C345.08 54.53 344.28 55.62 343.22 56.54C342.16 57.46 340.84 58.18 339.26 58.7C337.68 59.22 335.86 59.48 333.8 59.48C332.74 59.48 331.69 59.38 330.65 59.18C329.61 59 328.62 58.74 327.68 58.4C326.74 58.04 325.86 57.63 325.04 57.17C324.22 56.71 323.51 56.21 322.91 55.67L324.83 52.58C325.05 52.22 325.32 51.94 325.64 51.74C325.98 51.54 326.41 51.44 326.93 51.44C327.43 51.44 327.89 51.57 328.31 51.83C328.73 52.07 329.2 52.34 329.72 52.64C330.24 52.92 330.85 53.19 331.55 53.45C332.27 53.69 333.16 53.81 334.22 53.81C335.02 53.81 335.71 53.72 336.29 53.54C336.87 53.36 337.34 53.12 337.7 52.82C338.06 52.5 338.32 52.15 338.48 51.77C338.66 51.37 338.75 50.96 338.75 50.54C338.75 49.86 338.53 49.31 338.09 48.89C337.67 48.45 337.11 48.07 336.41 47.75C335.73 47.43 334.94 47.14 334.04 46.88C333.14 46.62 332.22 46.33 331.28 46.01C330.36 45.69 329.45 45.31 328.55 44.87C327.67 44.43 326.88 43.88 326.18 43.22C325.5 42.54 324.94 41.71 324.5 40.73C324.08 39.75 323.87 38.56 323.87 37.16C323.87 35.88 324.12 34.67 324.62 33.53C325.12 32.37 325.87 31.35 326.87 30.47C327.87 29.59 329.11 28.89 330.59 28.37C332.09 27.85 333.82 27.59 335.78 27.59C337.98 27.59 339.98 27.95 341.78 28.67C343.58 29.39 345.06 30.33 346.22 31.49L344.33 34.43ZM9.012 86.844C8.7 86.484 8.36 86.232 7.992 86.088C7.632 85.944 7.248 85.872 6.84 85.872C6.44 85.872 6.076 85.948 5.748 86.1C5.42 86.252 5.136 86.492 4.896 86.82C4.664 87.14 4.484 87.552 4.356 88.056C4.228 88.56 4.164 89.16 4.164 89.856C4.164 90.544 4.216 91.128 4.32 91.608C4.424 92.088 4.572 92.476 4.764 92.772C4.964 93.068 5.204 93.284 5.484 93.42C5.764 93.548 6.076 93.612 6.42 93.612C7.004 93.612 7.492 93.496 7.884 93.264C8.284 93.032 8.66 92.704 9.012 92.28V86.844ZM12.324 78.108V96H10.284C9.86 96 9.588 95.808 9.468 95.424L9.192 94.344C8.944 94.616 8.68 94.864 8.4 95.088C8.128 95.312 7.832 95.508 7.512 95.676C7.192 95.836 6.848 95.96 6.48 96.048C6.112 96.136 5.712 96.18 5.28 96.18C4.616 96.18 4.008 96.04 3.456 95.76C2.904 95.48 2.424 95.072 2.016 94.536C1.616 93.992 1.304 93.328 1.08 92.544C0.856 91.76 0.744 90.864 0.744 89.856C0.744 88.936 0.868 88.08 1.116 87.288C1.372 86.496 1.732 85.812 2.196 85.236C2.66 84.66 3.22 84.208 3.876 83.88C4.532 83.552 5.26 83.388 6.06 83.388C6.732 83.388 7.296 83.488 7.752 83.688C8.216 83.888 8.636 84.16 9.012 84.504V78.108H12.324ZM22.9269 88.356C22.9269 88.012 22.8789 87.684 22.7829 87.372C22.6949 87.06 22.5509 86.784 22.3509 86.544C22.1509 86.304 21.8989 86.116 21.5949 85.98C21.2909 85.836 20.9269 85.764 20.5029 85.764C19.7109 85.764 19.0909 85.988 18.6429 86.436C18.1949 86.884 17.9029 87.524 17.7669 88.356H22.9269ZM17.7189 90.324C17.8229 91.484 18.1509 92.332 18.7029 92.868C19.2629 93.404 19.9909 93.672 20.8869 93.672C21.3429 93.672 21.7349 93.62 22.0629 93.516C22.3989 93.404 22.6909 93.284 22.9389 93.156C23.1949 93.02 23.4229 92.9 23.6229 92.796C23.8309 92.684 24.0349 92.628 24.2349 92.628C24.4909 92.628 24.6909 92.724 24.8349 92.916L25.7949 94.116C25.4429 94.524 25.0549 94.864 24.6309 95.136C24.2069 95.4 23.7669 95.612 23.3109 95.772C22.8549 95.924 22.3949 96.028 21.9309 96.084C21.4669 96.148 21.0189 96.18 20.5869 96.18C19.7229 96.18 18.9149 96.04 18.1629 95.76C17.4189 95.472 16.7669 95.052 16.2069 94.5C15.6549 93.94 15.2189 93.248 14.8989 92.424C14.5789 91.6 14.4189 90.644 14.4189 89.556C14.4189 88.716 14.5549 87.924 14.8269 87.18C15.1069 86.436 15.5069 85.788 16.0269 85.236C16.5469 84.684 17.1789 84.248 17.9229 83.928C18.6669 83.6 19.5069 83.436 20.4429 83.436C21.2349 83.436 21.9629 83.564 22.6269 83.82C23.2989 84.068 23.8749 84.432 24.3549 84.912C24.8429 85.392 25.2189 85.984 25.4829 86.688C25.7549 87.384 25.8909 88.18 25.8909 89.076C25.8909 89.324 25.8789 89.528 25.8549 89.688C25.8309 89.848 25.7909 89.976 25.7349 90.072C25.6789 90.168 25.6029 90.236 25.5069 90.276C25.4109 90.308 25.2869 90.324 25.1349 90.324H17.7189ZM35.6381 86.172C35.5501 86.308 35.4581 86.408 35.3621 86.472C35.2741 86.528 35.1501 86.556 34.9901 86.556C34.8301 86.556 34.6661 86.516 34.4981 86.436C34.3301 86.356 34.1421 86.272 33.9341 86.184C33.7261 86.088 33.4861 86 33.2141 85.92C32.9501 85.84 32.6421 85.8 32.2901 85.8C31.7541 85.8 31.3381 85.912 31.0421 86.136C30.7461 86.352 30.5981 86.64 30.5981 87C30.5981 87.248 30.6821 87.456 30.8501 87.624C31.0181 87.792 31.2381 87.94 31.5101 88.068C31.7901 88.188 32.1061 88.304 32.4581 88.416C32.8101 88.52 33.1701 88.636 33.5381 88.764C33.9141 88.892 34.2781 89.04 34.6301 89.208C34.9821 89.376 35.2941 89.588 35.5661 89.844C35.8461 90.092 36.0701 90.396 36.2381 90.756C36.4061 91.108 36.4901 91.536 36.4901 92.04C36.4901 92.64 36.3781 93.196 36.1541 93.708C35.9381 94.212 35.6181 94.648 35.1941 95.016C34.7701 95.384 34.2421 95.672 33.6101 95.88C32.9781 96.088 32.2501 96.192 31.4261 96.192C31.0021 96.192 30.5821 96.152 30.1661 96.072C29.7501 96 29.3541 95.896 28.9781 95.76C28.6021 95.616 28.2501 95.452 27.9221 95.268C27.5941 95.084 27.3101 94.884 27.0701 94.668L27.8381 93.432C27.9261 93.288 28.0341 93.176 28.1621 93.096C28.2981 93.016 28.4701 92.976 28.6781 92.976C28.8781 92.976 29.0621 93.028 29.2301 93.132C29.3981 93.228 29.5861 93.336 29.7941 93.456C30.0021 93.568 30.2461 93.676 30.5261 93.78C30.8141 93.876 31.1701 93.924 31.5941 93.924C31.9141 93.924 32.1901 93.888 32.4221 93.816C32.6541 93.744 32.8421 93.648 32.9861 93.528C33.1301 93.4 33.2341 93.26 33.2981 93.108C33.3701 92.948 33.4061 92.784 33.4061 92.616C33.4061 92.344 33.3181 92.124 33.1421 91.956C32.9741 91.78 32.7501 91.628 32.4701 91.5C32.1981 91.372 31.8821 91.256 31.5221 91.152C31.1621 91.048 30.7941 90.932 30.4181 90.804C30.0501 90.676 29.6861 90.524 29.3261 90.348C28.9741 90.172 28.6581 89.952 28.3781 89.688C28.1061 89.416 27.8821 89.084 27.7061 88.692C27.5381 88.3 27.4541 87.824 27.4541 87.264C27.4541 86.752 27.5541 86.268 27.7541 85.812C27.9541 85.348 28.2541 84.94 28.6541 84.588C29.0541 84.236 29.5501 83.956 30.1421 83.748C30.7421 83.54 31.4341 83.436 32.2181 83.436C33.0981 83.436 33.8981 83.58 34.6181 83.868C35.3381 84.156 35.9301 84.532 36.3941 84.996L35.6381 86.172ZM41.9713 83.628V96H38.6593V83.628H41.9713ZM42.3673 80.112C42.3673 80.392 42.3113 80.652 42.1993 80.892C42.0873 81.132 41.9353 81.344 41.7433 81.528C41.5593 81.712 41.3393 81.856 41.0833 81.96C40.8353 82.064 40.5673 82.116 40.2793 82.116C40.0073 82.116 39.7473 82.064 39.4993 81.96C39.2593 81.856 39.0473 81.712 38.8633 81.528C38.6793 81.344 38.5313 81.132 38.4193 80.892C38.3153 80.652 38.2633 80.392 38.2633 80.112C38.2633 79.832 38.3153 79.572 38.4193 79.332C38.5313 79.084 38.6793 78.868 38.8633 78.684C39.0473 78.5 39.2593 78.356 39.4993 78.252C39.7473 78.148 40.0073 78.096 40.2793 78.096C40.5673 78.096 40.8353 78.148 41.0833 78.252C41.3393 78.356 41.5593 78.5 41.7433 78.684C41.9353 78.868 42.0873 79.084 42.1993 79.332C42.3113 79.572 42.3673 79.832 42.3673 80.112ZM49.4057 89.352C50.0857 89.352 50.5857 89.18 50.9057 88.836C51.2337 88.492 51.3977 88.048 51.3977 87.504C51.3977 86.936 51.2337 86.492 50.9057 86.172C50.5857 85.844 50.0857 85.68 49.4057 85.68C48.7257 85.68 48.2257 85.844 47.9057 86.172C47.5857 86.492 47.4257 86.936 47.4257 87.504C47.4257 88.04 47.5857 88.484 47.9057 88.836C48.2337 89.18 48.7337 89.352 49.4057 89.352ZM52.5377 96.504C52.5377 96.288 52.4697 96.112 52.3337 95.976C52.1977 95.84 52.0137 95.732 51.7817 95.652C51.5577 95.572 51.2897 95.516 50.9777 95.484C50.6657 95.444 50.3337 95.416 49.9817 95.4C49.6297 95.376 49.2657 95.356 48.8897 95.34C48.5137 95.324 48.1457 95.296 47.7857 95.256C47.5057 95.424 47.2737 95.624 47.0897 95.856C46.9137 96.08 46.8257 96.336 46.8257 96.624C46.8257 96.824 46.8697 97.008 46.9577 97.176C47.0537 97.344 47.2097 97.488 47.4257 97.608C47.6417 97.728 47.9257 97.82 48.2777 97.884C48.6297 97.956 49.0697 97.992 49.5977 97.992C50.1417 97.992 50.6017 97.956 50.9777 97.884C51.3537 97.812 51.6577 97.708 51.8897 97.572C52.1217 97.444 52.2857 97.288 52.3817 97.104C52.4857 96.92 52.5377 96.72 52.5377 96.504ZM55.8257 84.036V85.248C55.8257 85.44 55.7697 85.592 55.6577 85.704C55.5537 85.816 55.3777 85.9 55.1297 85.956L54.1217 86.16C54.2577 86.552 54.3257 86.972 54.3257 87.42C54.3257 88.036 54.1977 88.592 53.9417 89.088C53.6937 89.576 53.3497 89.996 52.9097 90.348C52.4697 90.692 51.9497 90.96 51.3497 91.152C50.7497 91.336 50.1017 91.428 49.4057 91.428C48.9657 91.428 48.5537 91.392 48.1697 91.32C47.8337 91.528 47.6657 91.756 47.6657 92.004C47.6657 92.236 47.7777 92.404 48.0017 92.508C48.2337 92.612 48.5337 92.688 48.9017 92.736C49.2777 92.776 49.7017 92.804 50.1737 92.82C50.6537 92.828 51.1377 92.852 51.6257 92.892C52.1217 92.932 52.6057 93.004 53.0777 93.108C53.5577 93.204 53.9817 93.368 54.3497 93.6C54.7257 93.824 55.0257 94.124 55.2497 94.5C55.4817 94.876 55.5977 95.36 55.5977 95.952C55.5977 96.504 55.4617 97.04 55.1897 97.56C54.9177 98.08 54.5217 98.544 54.0017 98.952C53.4897 99.36 52.8577 99.688 52.1057 99.936C51.3537 100.184 50.4977 100.308 49.5377 100.308C48.5857 100.308 47.7577 100.216 47.0537 100.032C46.3577 99.856 45.7777 99.616 45.3137 99.312C44.8577 99.016 44.5177 98.672 44.2937 98.28C44.0697 97.888 43.9577 97.48 43.9577 97.056C43.9577 96.504 44.1257 96.036 44.4617 95.652C44.7977 95.268 45.2617 94.96 45.8537 94.728C45.5417 94.552 45.2897 94.324 45.0977 94.044C44.9137 93.756 44.8217 93.384 44.8217 92.928C44.8217 92.56 44.9537 92.172 45.2177 91.764C45.4897 91.356 45.9057 91.016 46.4657 90.744C45.8337 90.408 45.3337 89.96 44.9657 89.4C44.5977 88.832 44.4137 88.172 44.4137 87.42C44.4137 86.804 44.5377 86.248 44.7857 85.752C45.0417 85.256 45.3937 84.836 45.8417 84.492C46.2897 84.14 46.8177 83.872 47.4257 83.688C48.0337 83.504 48.6937 83.412 49.4057 83.412C50.4617 83.412 51.3937 83.62 52.2017 84.036H55.8257ZM60.6197 85.068C60.8677 84.828 61.1237 84.608 61.3877 84.408C61.6597 84.208 61.9437 84.036 62.2397 83.892C62.5437 83.748 62.8677 83.636 63.2117 83.556C63.5637 83.476 63.9437 83.436 64.3517 83.436C65.0237 83.436 65.6197 83.552 66.1397 83.784C66.6597 84.016 67.0957 84.34 67.4477 84.756C67.8077 85.172 68.0757 85.668 68.2517 86.244C68.4357 86.82 68.5277 87.452 68.5277 88.14V96H65.2277V88.14C65.2277 87.452 65.0677 86.92 64.7477 86.544C64.4277 86.16 63.9557 85.968 63.3317 85.968C62.8677 85.968 62.4317 86.068 62.0237 86.268C61.6157 86.468 61.2277 86.748 60.8597 87.108V96H57.5477V83.628H59.5877C60.0037 83.628 60.2797 83.82 60.4157 84.204L60.6197 85.068ZM79.0129 88.356C79.0129 88.012 78.9649 87.684 78.8689 87.372C78.7809 87.06 78.6369 86.784 78.4369 86.544C78.2369 86.304 77.9849 86.116 77.6809 85.98C77.3769 85.836 77.0129 85.764 76.5889 85.764C75.7969 85.764 75.1769 85.988 74.7289 86.436C74.2809 86.884 73.9889 87.524 73.8529 88.356H79.0129ZM73.8049 90.324C73.9089 91.484 74.2369 92.332 74.7889 92.868C75.3489 93.404 76.0769 93.672 76.9729 93.672C77.4289 93.672 77.8209 93.62 78.1489 93.516C78.4849 93.404 78.7769 93.284 79.0249 93.156C79.2809 93.02 79.5089 92.9 79.7089 92.796C79.9169 92.684 80.1209 92.628 80.3209 92.628C80.5769 92.628 80.7769 92.724 80.9209 92.916L81.8809 94.116C81.5289 94.524 81.1409 94.864 80.7169 95.136C80.2929 95.4 79.8529 95.612 79.3969 95.772C78.9409 95.924 78.4809 96.028 78.0169 96.084C77.5529 96.148 77.1049 96.18 76.6729 96.18C75.8089 96.18 75.0009 96.04 74.2489 95.76C73.5049 95.472 72.8529 95.052 72.2929 94.5C71.7409 93.94 71.3049 93.248 70.9849 92.424C70.6649 91.6 70.5049 90.644 70.5049 89.556C70.5049 88.716 70.6409 87.924 70.9129 87.18C71.1929 86.436 71.5929 85.788 72.1129 85.236C72.6329 84.684 73.2649 84.248 74.0089 83.928C74.7529 83.6 75.5929 83.436 76.5289 83.436C77.3209 83.436 78.0489 83.564 78.7129 83.82C79.3849 84.068 79.9609 84.432 80.4409 84.912C80.9289 85.392 81.3049 85.984 81.5689 86.688C81.8409 87.384 81.9769 88.18 81.9769 89.076C81.9769 89.324 81.9649 89.528 81.9409 89.688C81.9169 89.848 81.8769 89.976 81.8209 90.072C81.7649 90.168 81.6889 90.236 81.5929 90.276C81.4969 90.308 81.3729 90.324 81.2209 90.324H73.8049ZM91.6761 86.844C91.3641 86.484 91.0241 86.232 90.6561 86.088C90.2961 85.944 89.9121 85.872 89.5041 85.872C89.1041 85.872 88.7401 85.948 88.4121 86.1C88.0841 86.252 87.8001 86.492 87.5601 86.82C87.3281 87.14 87.1481 87.552 87.0201 88.056C86.8921 88.56 86.8281 89.16 86.8281 89.856C86.8281 90.544 86.8801 91.128 86.9841 91.608C87.0881 92.088 87.2361 92.476 87.4281 92.772C87.6281 93.068 87.8681 93.284 88.1481 93.42C88.4281 93.548 88.7401 93.612 89.0841 93.612C89.6681 93.612 90.1561 93.496 90.5481 93.264C90.9481 93.032 91.3241 92.704 91.6761 92.28V86.844ZM94.9881 78.108V96H92.9481C92.5241 96 92.2521 95.808 92.1321 95.424L91.8561 94.344C91.6081 94.616 91.3441 94.864 91.0641 95.088C90.7921 95.312 90.4961 95.508 90.1761 95.676C89.8561 95.836 89.5121 95.96 89.1441 96.048C88.7761 96.136 88.3761 96.18 87.9441 96.18C87.2801 96.18 86.6721 96.04 86.1201 95.76C85.5681 95.48 85.0881 95.072 84.6801 94.536C84.2801 93.992 83.9681 93.328 83.7441 92.544C83.5201 91.76 83.4081 90.864 83.4081 89.856C83.4081 88.936 83.5321 88.08 83.7801 87.288C84.0361 86.496 84.3961 85.812 84.8601 85.236C85.3241 84.66 85.8841 84.208 86.5401 83.88C87.1961 83.552 87.9241 83.388 88.7241 83.388C89.3961 83.388 89.9601 83.488 90.4161 83.688C90.8801 83.888 91.3001 84.16 91.6761 84.504V78.108H94.9881ZM107.71 96.192C107.15 96.192 106.654 96.112 106.222 95.952C105.79 95.784 105.426 95.548 105.13 95.244C104.834 94.94 104.61 94.572 104.458 94.14C104.306 93.708 104.23 93.22 104.23 92.676V86.004H103.066C102.89 86.004 102.738 85.948 102.61 85.836C102.49 85.724 102.43 85.556 102.43 85.332V84.036L104.41 83.676L105.082 80.472C105.17 80.112 105.414 79.932 105.814 79.932H107.542V83.7H110.734V86.004H107.542V92.46C107.542 92.804 107.622 93.076 107.782 93.276C107.95 93.476 108.186 93.576 108.49 93.576C108.65 93.576 108.786 93.56 108.898 93.528C109.01 93.488 109.106 93.448 109.186 93.408C109.266 93.36 109.338 93.32 109.402 93.288C109.474 93.248 109.546 93.228 109.618 93.228C109.714 93.228 109.794 93.252 109.858 93.3C109.922 93.34 109.986 93.412 110.05 93.516L111.046 95.1C110.59 95.46 110.074 95.732 109.498 95.916C108.922 96.1 108.326 96.192 107.71 96.192ZM117.971 83.436C118.899 83.436 119.743 83.584 120.503 83.88C121.263 84.176 121.915 84.6 122.459 85.152C123.003 85.696 123.423 86.36 123.719 87.144C124.015 87.928 124.163 88.812 124.163 89.796C124.163 90.78 124.015 91.668 123.719 92.46C123.423 93.244 123.003 93.912 122.459 94.464C121.915 95.016 121.263 95.44 120.503 95.736C119.743 96.032 118.899 96.18 117.971 96.18C117.035 96.18 116.183 96.032 115.415 95.736C114.655 95.44 114.003 95.016 113.459 94.464C112.915 93.912 112.491 93.244 112.187 92.46C111.891 91.668 111.743 90.78 111.743 89.796C111.743 88.812 111.891 87.928 112.187 87.144C112.491 86.36 112.915 85.696 113.459 85.152C114.003 84.6 114.655 84.176 115.415 83.88C116.183 83.584 117.035 83.436 117.971 83.436ZM117.971 93.696C118.915 93.696 119.615 93.372 120.071 92.724C120.527 92.068 120.755 91.096 120.755 89.808C120.755 88.528 120.527 87.564 120.071 86.916C119.615 86.26 118.915 85.932 117.971 85.932C117.003 85.932 116.291 86.26 115.835 86.916C115.379 87.564 115.151 88.528 115.151 89.808C115.151 91.096 115.379 92.068 115.835 92.724C116.291 93.372 117.003 93.696 117.971 93.696ZM142.798 83.628V96H140.758C140.334 96 140.062 95.808 139.942 95.424L139.726 94.56C139.478 94.8 139.222 95.02 138.958 95.22C138.694 95.42 138.41 95.592 138.106 95.736C137.81 95.88 137.486 95.992 137.134 96.072C136.79 96.152 136.414 96.192 136.006 96.192C135.334 96.192 134.734 96.076 134.206 95.844C133.686 95.612 133.25 95.288 132.898 94.872C132.546 94.456 132.278 93.96 132.094 93.384C131.91 92.808 131.818 92.176 131.818 91.488V83.628H135.13V91.488C135.13 92.176 135.286 92.712 135.598 93.096C135.918 93.472 136.39 93.66 137.014 93.66C137.478 93.66 137.914 93.56 138.322 93.36C138.73 93.152 139.118 92.872 139.486 92.52V83.628H142.798ZM148.604 85.068C148.852 84.828 149.108 84.608 149.372 84.408C149.644 84.208 149.928 84.036 150.224 83.892C150.528 83.748 150.852 83.636 151.196 83.556C151.548 83.476 151.928 83.436 152.336 83.436C153.008 83.436 153.604 83.552 154.124 83.784C154.644 84.016 155.08 84.34 155.432 84.756C155.792 85.172 156.06 85.668 156.236 86.244C156.42 86.82 156.512 87.452 156.512 88.14V96H153.212V88.14C153.212 87.452 153.052 86.92 152.732 86.544C152.412 86.16 151.94 85.968 151.316 85.968C150.852 85.968 150.416 86.068 150.008 86.268C149.6 86.468 149.212 86.748 148.844 87.108V96H145.532V83.628H147.572C147.988 83.628 148.264 83.82 148.4 84.204L148.604 85.068ZM162.557 83.628V96H159.245V83.628H162.557ZM162.953 80.112C162.953 80.392 162.897 80.652 162.785 80.892C162.673 81.132 162.521 81.344 162.329 81.528C162.145 81.712 161.925 81.856 161.669 81.96C161.421 82.064 161.153 82.116 160.865 82.116C160.593 82.116 160.333 82.064 160.085 81.96C159.845 81.856 159.633 81.712 159.449 81.528C159.265 81.344 159.117 81.132 159.005 80.892C158.901 80.652 158.849 80.392 158.849 80.112C158.849 79.832 158.901 79.572 159.005 79.332C159.117 79.084 159.265 78.868 159.449 78.684C159.633 78.5 159.845 78.356 160.085 78.252C160.333 78.148 160.593 78.096 160.865 78.096C161.153 78.096 161.421 78.148 161.669 78.252C161.925 78.356 162.145 78.5 162.329 78.684C162.521 78.868 162.673 79.084 162.785 79.332C162.897 79.572 162.953 79.832 162.953 80.112ZM169.656 96.192C169.096 96.192 168.6 96.112 168.168 95.952C167.736 95.784 167.372 95.548 167.076 95.244C166.78 94.94 166.556 94.572 166.404 94.14C166.252 93.708 166.176 93.22 166.176 92.676V86.004H165.012C164.836 86.004 164.684 85.948 164.556 85.836C164.436 85.724 164.376 85.556 164.376 85.332V84.036L166.356 83.676L167.028 80.472C167.116 80.112 167.36 79.932 167.76 79.932H169.488V83.7H172.68V86.004H169.488V92.46C169.488 92.804 169.568 93.076 169.728 93.276C169.896 93.476 170.132 93.576 170.436 93.576C170.596 93.576 170.732 93.56 170.844 93.528C170.956 93.488 171.052 93.448 171.132 93.408C171.212 93.36 171.284 93.32 171.348 93.288C171.42 93.248 171.492 93.228 171.564 93.228C171.66 93.228 171.74 93.252 171.804 93.3C171.868 93.34 171.932 93.412 171.996 93.516L172.992 95.1C172.536 95.46 172.02 95.732 171.444 95.916C170.868 96.1 170.272 96.192 169.656 96.192ZM182.185 88.356C182.185 88.012 182.137 87.684 182.041 87.372C181.953 87.06 181.809 86.784 181.609 86.544C181.409 86.304 181.157 86.116 180.853 85.98C180.549 85.836 180.185 85.764 179.761 85.764C178.969 85.764 178.349 85.988 177.901 86.436C177.453 86.884 177.161 87.524 177.025 88.356H182.185ZM176.977 90.324C177.081 91.484 177.409 92.332 177.961 92.868C178.521 93.404 179.249 93.672 180.145 93.672C180.601 93.672 180.993 93.62 181.321 93.516C181.657 93.404 181.949 93.284 182.197 93.156C182.453 93.02 182.681 92.9 182.881 92.796C183.089 92.684 183.293 92.628 183.493 92.628C183.749 92.628 183.949 92.724 184.093 92.916L185.053 94.116C184.701 94.524 184.313 94.864 183.889 95.136C183.465 95.4 183.025 95.612 182.569 95.772C182.113 95.924 181.653 96.028 181.189 96.084C180.725 96.148 180.277 96.18 179.845 96.18C178.981 96.18 178.173 96.04 177.421 95.76C176.677 95.472 176.025 95.052 175.465 94.5C174.913 93.94 174.477 93.248 174.157 92.424C173.837 91.6 173.677 90.644 173.677 89.556C173.677 88.716 173.813 87.924 174.085 87.18C174.365 86.436 174.765 85.788 175.285 85.236C175.805 84.684 176.437 84.248 177.181 83.928C177.925 83.6 178.765 83.436 179.701 83.436C180.493 83.436 181.221 83.564 181.885 83.82C182.557 84.068 183.133 84.432 183.613 84.912C184.101 85.392 184.477 85.984 184.741 86.688C185.013 87.384 185.149 88.18 185.149 89.076C185.149 89.324 185.137 89.528 185.113 89.688C185.089 89.848 185.049 89.976 184.993 90.072C184.937 90.168 184.861 90.236 184.765 90.276C184.669 90.308 184.545 90.324 184.393 90.324H176.977Z" transform="translate(0 -14)" fill="black"/>
</svg>
